<?xml version="1.0" standalone="no"?>
<!DOCTYPE svg PUBLIC "-//W3C//DTD SVG 20010904//EN"
 "http://www.w3.org/TR/2001/REC-SVG-20010904/DTD/svg10.dtd">
<svg version="1.0" xmlns="http://www.w3.org/2000/svg"
 width="2251.000000pt" height="751.000000pt" viewBox="0 0 2251.000000 751.000000"
 preserveAspectRatio="xMidYMid meet">

<g transform="translate(0.000000,751.000000) scale(0.100000,-0.100000)"
fill="#000000" stroke="none">
<path d="M2950 5624 c-740 -91 -1352 -587 -1579 -1281 -357 -1086 332 -2237
1459 -2438 143 -25 408 -31 557 -11 550 73 1017 362 1324 820 366 544 419
1238 140 1839 -116 251 -320 506 -541 679 -251 195 -516 313 -845 375 -77 15
-437 26 -515 17z m205 -1119 c166 -44 301 -172 356 -338 l21 -64 59 -18 c122
-36 251 -148 308 -268 73 -154 62 -345 -29 -488 -74 -114 -216 -207 -350 -229
-91 -14 -897 -13 -939 1 -61 21 -61 22 -61 516 0 496 3 525 63 637 62 117 195
221 322 252 71 17 181 17 250 -1z"/>
<path d="M2934 4319 c-49 -14 -125 -69 -161 -117 -60 -79 -63 -103 -63 -534
l0 -389 403 3 402 3 57 27 c66 31 127 90 159 156 34 69 34 197 0 267 -39 77
-121 150 -189 167 -9 2 -22 -20 -36 -57 -48 -131 -131 -222 -260 -286 -69 -34
-96 -42 -163 -46 -93 -7 -118 3 -139 53 -11 27 -12 48 -4 106 23 160 127 305
272 378 44 22 87 40 94 40 27 0 26 29 -2 81 -55 100 -159 160 -277 158 -34 0
-76 -5 -93 -10z"/>
<path d="M3275 3872 c-56 -35 -137 -133 -122 -148 9 -10 103 64 134 104 48 63
44 78 -12 44z"/>
<path d="M17715 4899 c-56 -13 -107 -52 -136 -102 l-24 -42 -3 -965 c-2 -683
1 -980 9 -1018 13 -66 72 -131 135 -150 61 -18 580 -16 704 3 474 71 865 377
1008 785 134 385 43 788 -247 1093 -216 228 -511 366 -846 397 -135 12 -545
11 -600 -1z m710 -418 c277 -72 497 -273 582 -531 24 -73 29 -254 9 -341 -49
-219 -198 -400 -423 -513 -131 -65 -195 -78 -410 -83 l-193 -5 0 752 0 752
178 -5 c135 -3 196 -10 257 -26z"/>
<path d="M6595 4888 c-48 -17 -94 -56 -115 -98 -20 -38 -20 -60 -20 -1035 0
-959 1 -997 19 -1033 24 -47 56 -76 106 -99 36 -16 83 -18 455 -21 555 -5 659
7 834 94 179 90 309 236 372 419 24 70 28 95 28 200 0 104 -4 131 -27 201 -51
154 -144 269 -316 390 -2 2 6 15 17 31 66 94 102 212 102 333 0 296 -222 548
-542 614 -64 13 -148 16 -480 15 -253 0 -414 -4 -433 -11z m870 -406 c118 -54
175 -165 142 -273 -21 -69 -61 -114 -130 -149 l-60 -30 -264 0 -263 0 0 241 0
241 263 -4 c248 -3 265 -4 312 -26z m185 -888 c157 -75 226 -224 174 -377 -19
-56 -81 -129 -140 -163 -84 -49 -123 -54 -471 -54 l-323 0 0 315 0 316 348 -3
347 -3 65 -31z"/>
<path d="M9271 4874 c-34 -17 -62 -41 -79 -67 l-27 -41 0 -1012 0 -1012 30
-43 c101 -143 337 -113 393 50 8 23 12 142 12 382 l0 349 238 0 c166 0 252 -4
287 -14 110 -29 224 -108 252 -173 10 -24 13 -95 13 -280 0 -222 2 -252 19
-290 48 -105 196 -147 311 -88 40 21 87 79 99 122 14 49 14 502 1 574 -16 84
-74 193 -144 266 l-62 66 48 45 c138 129 211 296 211 482 0 193 -70 350 -221
492 -111 105 -239 170 -394 202 -63 13 -154 16 -506 16 l-428 0 -53 -26z m878
-374 c328 -54 395 -449 99 -586 l-63 -29 -292 -3 -293 -3 0 315 0 316 243 0
c133 0 271 -5 306 -10z"/>
<path d="M12719 4884 c-98 -30 -82 1 -536 -1054 -317 -735 -417 -977 -421
-1016 -10 -116 85 -206 219 -206 67 0 131 26 172 69 16 18 67 120 121 244 l93
214 438 0 439 0 91 -210 c50 -115 99 -222 109 -237 10 -15 43 -40 73 -54 63
-31 146 -36 204 -11 81 34 138 126 126 204 -3 18 -193 468 -422 1000 -457
1063 -440 1029 -539 1058 -61 18 -107 18 -167 -1z m220 -1042 c72 -166 131
-305 131 -307 0 -3 -121 -5 -269 -5 l-269 0 125 288 c68 158 129 298 134 311
5 13 11 22 14 20 2 -2 62 -140 134 -307z"/>
<path d="M20461 4874 c-34 -17 -62 -41 -79 -67 l-27 -41 -3 -995 c-3 -1092 -5
-1045 56 -1104 67 -64 185 -78 270 -32 54 29 82 61 100 114 16 47 17 1948 1
2006 -15 52 -82 119 -134 134 -67 18 -126 13 -184 -15z"/>
<path d="M14869 4866 c-57 -20 -96 -53 -118 -100 -21 -43 -21 -45 -19 -1034
l3 -990 30 -43 c86 -122 274 -122 360 0 l30 43 5 669 5 670 540 -673 c297
-370 558 -692 580 -716 51 -57 104 -84 169 -84 88 -1 172 49 202 119 12 27 14
203 14 1014 l0 982 -25 43 c-64 110 -228 135 -329 52 -75 -61 -70 -18 -76
-750 l-5 -657 -557 692 c-306 381 -569 704 -585 719 -54 52 -150 71 -224 44z"/>
</g>
</svg>
